<svg xmlns="http://www.w3.org/2000/svg" xmlns:xlink="http://www.w3.org/1999/xlink" viewBox="0 0 182.88 183.31"><defs><style>.cls-1,.cls-2,.cls-3{fill:none;}.cls-2,.cls-3{stroke:#0f47aa;stroke-miterlimit:10;}.cls-2{stroke-width:2px;}.cls-3{stroke-width:3px;}.cls-4{fill:#dd0808;}.cls-5{clip-path:url(#clip-path);}.cls-6{fill:#f8d11e;}</style><clipPath id="clip-path"><polygon class="cls-1" points="105.77 135.91 92.17 159.16 118.25 148.38 105.77 135.91"/></clipPath></defs><g id="Layer_2" data-name="Layer 2"><g id="Layer_1-2" data-name="Layer 1"><path class="cls-2" d="M1.57,4.81c-1,2.91-.4,7-.4,10.75V173.05s.86,6.8,7.66,8.5,133.51,0,133.51,0,5.95,1.7,7.65-6.8,0-140.32,0-140.32L115.13,1.27c-34.16,0-68.31.15-102.47-.15C8.59,1.08,3.18.06,1.57,4.81Z"/><path class="cls-2" d="M115.13,1.27c0,9,.21,17.93-.13,26.88a10.09,10.09,0,0,0,.22,3.2c.69,2.39,3.63,3.4,5.86,3.65L150,34.43"/><line class="cls-3" x1="38.03" y1="39.53" x2="79.69" y2="39.53"/><line class="cls-3" x1="38.03" y1="69.01" x2="79.69" y2="69.01"/><line class="cls-3" x1="38.03" y1="99.91" x2="79.69" y2="99.91"/><line class="cls-3" x1="38.03" y1="129.11" x2="79.69" y2="129.11"/><rect class="cls-3" x="11.66" y="31.6" width="15.87" height="15.87"/><rect class="cls-3" x="11.66" y="91.97" width="15.87" height="15.87"/><rect class="cls-3" x="11.66" y="62.89" width="15.87" height="15.87"/><rect class="cls-3" x="11.66" y="121.06" width="15.87" height="15.87"/><path class="cls-4" d="M105.77,135.91l64.07-57.34,13,13.08-64.63,56.73Z"/><g class="cls-5"><polygon class="cls-6" points="105.77 135.91 92.17 159.16 118.25 148.38 105.77 135.91"/><path class="cls-4" d="M92.17,151.6s7.56,2.26,7.93,9.07l-9.26,2.64Z"/></g></g></g></svg>